<mxfile host="app.diagrams.net" modified="2024-01-10T19:18:51.542Z" agent="Mozilla/5.0 (Windows NT 10.0; Win64; x64; rv:121.0) Gecko/20100101 Firefox/121.0" etag="ld6py2svphlwtyXjchy_" version="21.3.7" type="device">
  <diagram id="BC79CML7Z33H3tk79keH" name="Strona-1">
    <mxGraphModel dx="1434" dy="746" grid="1" gridSize="10" guides="1" tooltips="1" connect="1" arrows="1" fold="1" page="1" pageScale="1" pageWidth="827" pageHeight="1169" math="0" shadow="0">
      <root>
        <mxCell id="0" />
        <mxCell id="1" parent="0" />
        <mxCell id="yx_y9nf9KPECeYAKMQg5-1" value="" style="whiteSpace=wrap;html=1;aspect=fixed;" parent="1" vertex="1">
          <mxGeometry x="110" y="60" width="680" height="680" as="geometry" />
        </mxCell>
        <mxCell id="yx_y9nf9KPECeYAKMQg5-2" value="&lt;div style=&quot;font-size: 18px;&quot; align=&quot;center&quot;&gt;&lt;font style=&quot;font-size: 18px;&quot;&gt;&lt;b&gt;FarmGuider &lt;font style=&quot;font-size: 18px;&quot;&gt;- Moduł Hodowlany&lt;/font&gt;&lt;br&gt;&lt;/b&gt;&lt;/font&gt;&lt;/div&gt;" style="text;html=1;strokeColor=none;fillColor=none;spacing=5;spacingTop=-20;whiteSpace=wrap;overflow=hidden;rounded=0;align=center;" parent="1" vertex="1">
          <mxGeometry x="295.63" y="80" width="308.75" height="30" as="geometry" />
        </mxCell>
        <mxCell id="yx_y9nf9KPECeYAKMQg5-13" value="&lt;font style=&quot;font-size: 12px;&quot;&gt;Zarządzanie hodowlą&lt;br&gt;&lt;/font&gt;" style="ellipse;whiteSpace=wrap;html=1;fontSize=18;" parent="1" vertex="1">
          <mxGeometry x="160" y="360" width="130" height="80" as="geometry" />
        </mxCell>
        <mxCell id="VzAytHsf84ptwid28OPW-5" value="&lt;font style=&quot;font-size: 12px;&quot;&gt;Zarządzanie stadem&lt;br&gt;&lt;/font&gt;" style="ellipse;whiteSpace=wrap;html=1;fontSize=18;" vertex="1" parent="1">
          <mxGeometry x="130" y="180" width="130" height="80" as="geometry" />
        </mxCell>
        <mxCell id="VzAytHsf84ptwid28OPW-6" value="Użytkownik" style="shape=umlActor;verticalLabelPosition=bottom;verticalAlign=top;html=1;outlineConnect=0;fontSize=18;" vertex="1" parent="1">
          <mxGeometry x="20" y="355" width="50" height="90" as="geometry" />
        </mxCell>
        <mxCell id="VzAytHsf84ptwid28OPW-10" value="&lt;font style=&quot;font-size: 12px;&quot;&gt;Edycja danych krowy&lt;br&gt;&lt;/font&gt;" style="ellipse;whiteSpace=wrap;html=1;fontSize=18;" vertex="1" parent="1">
          <mxGeometry x="310" y="110" width="130" height="60" as="geometry" />
        </mxCell>
        <mxCell id="VzAytHsf84ptwid28OPW-16" style="edgeStyle=orthogonalEdgeStyle;rounded=0;orthogonalLoop=1;jettySize=auto;html=1;entryX=0;entryY=0.5;entryDx=0;entryDy=0;fontSize=12;endArrow=none;endFill=0;" edge="1" parent="1" target="yx_y9nf9KPECeYAKMQg5-13">
          <mxGeometry relative="1" as="geometry">
            <mxPoint x="80" y="400" as="sourcePoint" />
            <Array as="points">
              <mxPoint x="80" y="400" />
            </Array>
            <mxPoint x="610" y="270" as="targetPoint" />
          </mxGeometry>
        </mxCell>
        <mxCell id="VzAytHsf84ptwid28OPW-17" value="&lt;font style=&quot;font-size: 12px;&quot;&gt;Zarządzanie krową&lt;br&gt;&lt;/font&gt;" style="ellipse;whiteSpace=wrap;html=1;fontSize=18;" vertex="1" parent="1">
          <mxGeometry x="310" y="210" width="130" height="80" as="geometry" />
        </mxCell>
        <mxCell id="VzAytHsf84ptwid28OPW-18" value="&lt;font style=&quot;font-size: 12px;&quot;&gt;Zarządzanie udojami&lt;br&gt;&lt;/font&gt;" style="ellipse;whiteSpace=wrap;html=1;fontSize=18;" vertex="1" parent="1">
          <mxGeometry x="410" y="300" width="130" height="80" as="geometry" />
        </mxCell>
        <mxCell id="VzAytHsf84ptwid28OPW-19" value="&lt;font style=&quot;font-size: 12px;&quot;&gt;Zarządzanie pomiarami wagi&lt;br&gt;&lt;/font&gt;" style="ellipse;whiteSpace=wrap;html=1;fontSize=18;" vertex="1" parent="1">
          <mxGeometry x="414" y="470" width="130" height="80" as="geometry" />
        </mxCell>
        <mxCell id="VzAytHsf84ptwid28OPW-20" value="&lt;font style=&quot;font-size: 12px;&quot;&gt;Zarządzanie okresami laktacji&lt;br&gt;&lt;/font&gt;" style="ellipse;whiteSpace=wrap;html=1;fontSize=18;" vertex="1" parent="1">
          <mxGeometry x="230" y="525" width="145" height="80" as="geometry" />
        </mxCell>
        <mxCell id="VzAytHsf84ptwid28OPW-22" value="" style="endArrow=classic;html=1;rounded=0;entryX=0.708;entryY=0.038;entryDx=0;entryDy=0;exitX=0;exitY=1;exitDx=0;exitDy=0;entryPerimeter=0;" edge="1" parent="1" source="VzAytHsf84ptwid28OPW-17" target="yx_y9nf9KPECeYAKMQg5-13">
          <mxGeometry width="50" height="50" relative="1" as="geometry">
            <mxPoint x="390" y="410" as="sourcePoint" />
            <mxPoint x="440" y="360" as="targetPoint" />
          </mxGeometry>
        </mxCell>
        <mxCell id="VzAytHsf84ptwid28OPW-23" value="&lt;font style=&quot;font-size: 12px;&quot;&gt;&amp;lt;&amp;lt;Extends&amp;gt;&amp;gt;&lt;/font&gt;" style="edgeLabel;html=1;align=center;verticalAlign=middle;resizable=0;points=[];rotation=0;" vertex="1" connectable="0" parent="VzAytHsf84ptwid28OPW-22">
          <mxGeometry x="-0.1225" relative="1" as="geometry">
            <mxPoint x="-3" y="3" as="offset" />
          </mxGeometry>
        </mxCell>
        <mxCell id="VzAytHsf84ptwid28OPW-24" value="" style="endArrow=classic;html=1;rounded=0;entryX=0.438;entryY=0.013;entryDx=0;entryDy=0;exitX=0.5;exitY=1;exitDx=0;exitDy=0;entryPerimeter=0;" edge="1" parent="1" source="VzAytHsf84ptwid28OPW-5" target="yx_y9nf9KPECeYAKMQg5-13">
          <mxGeometry width="50" height="50" relative="1" as="geometry">
            <mxPoint x="414" y="160" as="sourcePoint" />
            <mxPoint x="290" y="360" as="targetPoint" />
          </mxGeometry>
        </mxCell>
        <mxCell id="VzAytHsf84ptwid28OPW-25" value="&lt;font style=&quot;font-size: 12px;&quot;&gt;&amp;lt;&amp;lt;Extends&amp;gt;&amp;gt;&lt;/font&gt;" style="edgeLabel;html=1;align=center;verticalAlign=middle;resizable=0;points=[];rotation=0;" vertex="1" connectable="0" parent="VzAytHsf84ptwid28OPW-24">
          <mxGeometry x="-0.1225" relative="1" as="geometry">
            <mxPoint y="-8" as="offset" />
          </mxGeometry>
        </mxCell>
        <mxCell id="VzAytHsf84ptwid28OPW-28" value="&lt;font style=&quot;font-size: 12px;&quot;&gt;Usunięcie krowy&lt;br&gt;&lt;/font&gt;" style="ellipse;whiteSpace=wrap;html=1;fontSize=18;" vertex="1" parent="1">
          <mxGeometry x="474.38" y="110" width="130" height="60" as="geometry" />
        </mxCell>
        <mxCell id="VzAytHsf84ptwid28OPW-29" value="&lt;font style=&quot;font-size: 12px;&quot;&gt;Dodanie udoju&lt;br&gt;&lt;/font&gt;" style="ellipse;whiteSpace=wrap;html=1;fontSize=18;" vertex="1" parent="1">
          <mxGeometry x="640" y="240" width="130" height="60" as="geometry" />
        </mxCell>
        <mxCell id="VzAytHsf84ptwid28OPW-30" value="&lt;font style=&quot;font-size: 12px;&quot;&gt;Edycja udoju&lt;br&gt;&lt;/font&gt;" style="ellipse;whiteSpace=wrap;html=1;fontSize=18;" vertex="1" parent="1">
          <mxGeometry x="640" y="310" width="130" height="60" as="geometry" />
        </mxCell>
        <mxCell id="VzAytHsf84ptwid28OPW-31" value="&lt;font style=&quot;font-size: 12px;&quot;&gt;Usunięcie udoju&lt;br&gt;&lt;/font&gt;" style="ellipse;whiteSpace=wrap;html=1;fontSize=18;" vertex="1" parent="1">
          <mxGeometry x="640" y="385" width="130" height="60" as="geometry" />
        </mxCell>
        <mxCell id="VzAytHsf84ptwid28OPW-32" value="&lt;font style=&quot;font-size: 12px;&quot;&gt;Dodanie pomiaru&lt;br&gt;wagi&lt;br&gt;&lt;/font&gt;" style="ellipse;whiteSpace=wrap;html=1;fontSize=18;" vertex="1" parent="1">
          <mxGeometry x="640" y="535" width="130" height="60" as="geometry" />
        </mxCell>
        <mxCell id="VzAytHsf84ptwid28OPW-33" value="&lt;font style=&quot;font-size: 12px;&quot;&gt;Edycja pomiaru&lt;br&gt;wagi&lt;br&gt;&lt;/font&gt;" style="ellipse;whiteSpace=wrap;html=1;fontSize=18;" vertex="1" parent="1">
          <mxGeometry x="650" y="610" width="130" height="60" as="geometry" />
        </mxCell>
        <mxCell id="VzAytHsf84ptwid28OPW-34" value="&lt;font style=&quot;font-size: 12px;&quot;&gt;Usunięcie pomiaru&lt;br&gt;wagi&lt;br&gt;&lt;/font&gt;" style="ellipse;whiteSpace=wrap;html=1;fontSize=18;" vertex="1" parent="1">
          <mxGeometry x="570" y="670" width="130" height="60" as="geometry" />
        </mxCell>
        <mxCell id="VzAytHsf84ptwid28OPW-35" value="&lt;font style=&quot;font-size: 12px;&quot;&gt;Dodanie okresu&lt;br&gt;laktacji&lt;br&gt;&lt;/font&gt;" style="ellipse;whiteSpace=wrap;html=1;fontSize=18;" vertex="1" parent="1">
          <mxGeometry x="130" y="630" width="130" height="60" as="geometry" />
        </mxCell>
        <mxCell id="VzAytHsf84ptwid28OPW-36" value="&lt;font style=&quot;font-size: 12px;&quot;&gt;Edycja okresu&lt;br&gt;laktacji&lt;br&gt;&lt;/font&gt;" style="ellipse;whiteSpace=wrap;html=1;fontSize=18;" vertex="1" parent="1">
          <mxGeometry x="250" y="670" width="130" height="60" as="geometry" />
        </mxCell>
        <mxCell id="VzAytHsf84ptwid28OPW-37" value="&lt;font style=&quot;font-size: 12px;&quot;&gt;Usunięcie okresu&lt;br&gt;laktacji&lt;br&gt;&lt;/font&gt;" style="ellipse;whiteSpace=wrap;html=1;fontSize=18;" vertex="1" parent="1">
          <mxGeometry x="360" y="630" width="130" height="60" as="geometry" />
        </mxCell>
        <mxCell id="VzAytHsf84ptwid28OPW-38" value="" style="endArrow=classic;html=1;rounded=0;entryX=0.962;entryY=0.225;entryDx=0;entryDy=0;exitX=0;exitY=0.5;exitDx=0;exitDy=0;entryPerimeter=0;" edge="1" parent="1" source="VzAytHsf84ptwid28OPW-18" target="yx_y9nf9KPECeYAKMQg5-13">
          <mxGeometry width="50" height="50" relative="1" as="geometry">
            <mxPoint x="370" y="210" as="sourcePoint" />
            <mxPoint x="235" y="370" as="targetPoint" />
          </mxGeometry>
        </mxCell>
        <mxCell id="VzAytHsf84ptwid28OPW-39" value="&lt;font style=&quot;font-size: 12px;&quot;&gt;&amp;lt;&amp;lt;Extends&amp;gt;&amp;gt;&lt;/font&gt;" style="edgeLabel;html=1;align=center;verticalAlign=middle;resizable=0;points=[];rotation=0;" vertex="1" connectable="0" parent="VzAytHsf84ptwid28OPW-38">
          <mxGeometry x="-0.1225" relative="1" as="geometry">
            <mxPoint x="-13" y="6" as="offset" />
          </mxGeometry>
        </mxCell>
        <mxCell id="VzAytHsf84ptwid28OPW-40" value="" style="endArrow=classic;html=1;rounded=0;entryX=0.5;entryY=0;entryDx=0;entryDy=0;exitX=0.5;exitY=1;exitDx=0;exitDy=0;" edge="1" parent="1" source="VzAytHsf84ptwid28OPW-10" target="VzAytHsf84ptwid28OPW-17">
          <mxGeometry width="50" height="50" relative="1" as="geometry">
            <mxPoint x="370" y="330" as="sourcePoint" />
            <mxPoint x="300" y="410" as="targetPoint" />
          </mxGeometry>
        </mxCell>
        <mxCell id="VzAytHsf84ptwid28OPW-41" value="&lt;font style=&quot;font-size: 12px;&quot;&gt;&amp;lt;&amp;lt;Extends&amp;gt;&amp;gt;&lt;/font&gt;" style="edgeLabel;html=1;align=center;verticalAlign=middle;resizable=0;points=[];rotation=0;" vertex="1" connectable="0" parent="VzAytHsf84ptwid28OPW-40">
          <mxGeometry x="-0.1225" relative="1" as="geometry">
            <mxPoint y="4" as="offset" />
          </mxGeometry>
        </mxCell>
        <mxCell id="VzAytHsf84ptwid28OPW-42" value="" style="endArrow=classic;html=1;rounded=0;exitX=0;exitY=1;exitDx=0;exitDy=0;entryX=1;entryY=0;entryDx=0;entryDy=0;" edge="1" parent="1" source="VzAytHsf84ptwid28OPW-28" target="VzAytHsf84ptwid28OPW-17">
          <mxGeometry width="50" height="50" relative="1" as="geometry">
            <mxPoint x="630" y="150" as="sourcePoint" />
            <mxPoint x="490" y="200" as="targetPoint" />
          </mxGeometry>
        </mxCell>
        <mxCell id="VzAytHsf84ptwid28OPW-43" value="&lt;font style=&quot;font-size: 12px;&quot;&gt;&amp;lt;&amp;lt;Extends&amp;gt;&amp;gt;&lt;/font&gt;" style="edgeLabel;html=1;align=center;verticalAlign=middle;resizable=0;points=[];rotation=0;" vertex="1" connectable="0" parent="VzAytHsf84ptwid28OPW-42">
          <mxGeometry x="-0.1225" relative="1" as="geometry">
            <mxPoint x="-4" y="-5" as="offset" />
          </mxGeometry>
        </mxCell>
        <mxCell id="VzAytHsf84ptwid28OPW-45" value="" style="endArrow=classic;html=1;rounded=0;entryX=1;entryY=0;entryDx=0;entryDy=0;exitX=0.028;exitY=0.733;exitDx=0;exitDy=0;exitPerimeter=0;" edge="1" parent="1" source="VzAytHsf84ptwid28OPW-29" target="VzAytHsf84ptwid28OPW-18">
          <mxGeometry width="50" height="50" relative="1" as="geometry">
            <mxPoint x="410" y="380" as="sourcePoint" />
            <mxPoint x="300" y="410" as="targetPoint" />
          </mxGeometry>
        </mxCell>
        <mxCell id="VzAytHsf84ptwid28OPW-46" value="&lt;font style=&quot;font-size: 12px;&quot;&gt;&amp;lt;&amp;lt;Extends&amp;gt;&amp;gt;&lt;/font&gt;" style="edgeLabel;html=1;align=center;verticalAlign=middle;resizable=0;points=[];rotation=0;" vertex="1" connectable="0" parent="VzAytHsf84ptwid28OPW-45">
          <mxGeometry x="-0.1225" relative="1" as="geometry">
            <mxPoint x="-9" y="-3" as="offset" />
          </mxGeometry>
        </mxCell>
        <mxCell id="VzAytHsf84ptwid28OPW-48" value="" style="endArrow=classic;html=1;rounded=0;entryX=1;entryY=0.5;entryDx=0;entryDy=0;exitX=0;exitY=0.5;exitDx=0;exitDy=0;" edge="1" parent="1" source="VzAytHsf84ptwid28OPW-30" target="VzAytHsf84ptwid28OPW-18">
          <mxGeometry width="50" height="50" relative="1" as="geometry">
            <mxPoint x="630" y="310" as="sourcePoint" />
            <mxPoint x="521" y="352" as="targetPoint" />
          </mxGeometry>
        </mxCell>
        <mxCell id="VzAytHsf84ptwid28OPW-49" value="&lt;font style=&quot;font-size: 12px;&quot;&gt;&amp;lt;&amp;lt;Extends&amp;gt;&amp;gt;&lt;/font&gt;" style="edgeLabel;html=1;align=center;verticalAlign=middle;resizable=0;points=[];rotation=0;" vertex="1" connectable="0" parent="VzAytHsf84ptwid28OPW-48">
          <mxGeometry x="-0.1225" relative="1" as="geometry">
            <mxPoint x="-3" y="-3" as="offset" />
          </mxGeometry>
        </mxCell>
        <mxCell id="VzAytHsf84ptwid28OPW-50" value="" style="endArrow=classic;html=1;rounded=0;entryX=1;entryY=1;entryDx=0;entryDy=0;exitX=0;exitY=0.5;exitDx=0;exitDy=0;" edge="1" parent="1" source="VzAytHsf84ptwid28OPW-31" target="VzAytHsf84ptwid28OPW-18">
          <mxGeometry width="50" height="50" relative="1" as="geometry">
            <mxPoint x="650" y="380" as="sourcePoint" />
            <mxPoint x="540" y="380" as="targetPoint" />
          </mxGeometry>
        </mxCell>
        <mxCell id="VzAytHsf84ptwid28OPW-51" value="&lt;font style=&quot;font-size: 12px;&quot;&gt;&amp;lt;&amp;lt;Extends&amp;gt;&amp;gt;&lt;/font&gt;" style="edgeLabel;html=1;align=center;verticalAlign=middle;resizable=0;points=[];rotation=0;" vertex="1" connectable="0" parent="VzAytHsf84ptwid28OPW-50">
          <mxGeometry x="-0.1225" relative="1" as="geometry">
            <mxPoint x="-3" y="-3" as="offset" />
          </mxGeometry>
        </mxCell>
        <mxCell id="VzAytHsf84ptwid28OPW-52" value="" style="endArrow=classic;html=1;rounded=0;entryX=1;entryY=1;entryDx=0;entryDy=0;exitX=0.015;exitY=0.3;exitDx=0;exitDy=0;exitPerimeter=0;" edge="1" parent="1" source="VzAytHsf84ptwid28OPW-19" target="yx_y9nf9KPECeYAKMQg5-13">
          <mxGeometry width="50" height="50" relative="1" as="geometry">
            <mxPoint x="410" y="380" as="sourcePoint" />
            <mxPoint x="300" y="410" as="targetPoint" />
          </mxGeometry>
        </mxCell>
        <mxCell id="VzAytHsf84ptwid28OPW-53" value="&lt;font style=&quot;font-size: 12px;&quot;&gt;&amp;lt;&amp;lt;Extends&amp;gt;&amp;gt;&lt;/font&gt;" style="edgeLabel;html=1;align=center;verticalAlign=middle;resizable=0;points=[];rotation=0;" vertex="1" connectable="0" parent="VzAytHsf84ptwid28OPW-52">
          <mxGeometry x="-0.1225" relative="1" as="geometry">
            <mxPoint x="-9" y="-3" as="offset" />
          </mxGeometry>
        </mxCell>
        <mxCell id="VzAytHsf84ptwid28OPW-54" value="" style="endArrow=classic;html=1;rounded=0;entryX=1.023;entryY=0.625;entryDx=0;entryDy=0;exitX=0.038;exitY=0.217;exitDx=0;exitDy=0;exitPerimeter=0;entryPerimeter=0;" edge="1" parent="1" source="VzAytHsf84ptwid28OPW-32" target="VzAytHsf84ptwid28OPW-19">
          <mxGeometry width="50" height="50" relative="1" as="geometry">
            <mxPoint x="370" y="520" as="sourcePoint" />
            <mxPoint x="281" y="438" as="targetPoint" />
          </mxGeometry>
        </mxCell>
        <mxCell id="VzAytHsf84ptwid28OPW-55" value="&lt;font style=&quot;font-size: 12px;&quot;&gt;&amp;lt;&amp;lt;Extends&amp;gt;&amp;gt;&lt;/font&gt;" style="edgeLabel;html=1;align=center;verticalAlign=middle;resizable=0;points=[];rotation=0;" vertex="1" connectable="0" parent="VzAytHsf84ptwid28OPW-54">
          <mxGeometry x="-0.1225" relative="1" as="geometry">
            <mxPoint x="-9" y="-3" as="offset" />
          </mxGeometry>
        </mxCell>
        <mxCell id="VzAytHsf84ptwid28OPW-57" value="" style="endArrow=classic;html=1;rounded=0;entryX=0.908;entryY=0.813;entryDx=0;entryDy=0;exitX=0.046;exitY=0.267;exitDx=0;exitDy=0;exitPerimeter=0;entryPerimeter=0;" edge="1" parent="1" source="VzAytHsf84ptwid28OPW-33" target="VzAytHsf84ptwid28OPW-19">
          <mxGeometry width="50" height="50" relative="1" as="geometry">
            <mxPoint x="620" y="530" as="sourcePoint" />
            <mxPoint x="531" y="562" as="targetPoint" />
          </mxGeometry>
        </mxCell>
        <mxCell id="VzAytHsf84ptwid28OPW-58" value="&lt;font style=&quot;font-size: 12px;&quot;&gt;&amp;lt;&amp;lt;Extends&amp;gt;&amp;gt;&lt;/font&gt;" style="edgeLabel;html=1;align=center;verticalAlign=middle;resizable=0;points=[];rotation=0;" vertex="1" connectable="0" parent="VzAytHsf84ptwid28OPW-57">
          <mxGeometry x="-0.1225" relative="1" as="geometry">
            <mxPoint x="-9" y="-3" as="offset" />
          </mxGeometry>
        </mxCell>
        <mxCell id="VzAytHsf84ptwid28OPW-59" value="" style="endArrow=classic;html=1;rounded=0;entryX=0.631;entryY=1.038;entryDx=0;entryDy=0;exitX=0;exitY=0;exitDx=0;exitDy=0;entryPerimeter=0;" edge="1" parent="1" source="VzAytHsf84ptwid28OPW-34" target="VzAytHsf84ptwid28OPW-19">
          <mxGeometry width="50" height="50" relative="1" as="geometry">
            <mxPoint x="650" y="600" as="sourcePoint" />
            <mxPoint x="550" y="600" as="targetPoint" />
          </mxGeometry>
        </mxCell>
        <mxCell id="VzAytHsf84ptwid28OPW-60" value="&lt;font style=&quot;font-size: 12px;&quot;&gt;&amp;lt;&amp;lt;Extends&amp;gt;&amp;gt;&lt;/font&gt;" style="edgeLabel;html=1;align=center;verticalAlign=middle;resizable=0;points=[];rotation=0;" vertex="1" connectable="0" parent="VzAytHsf84ptwid28OPW-59">
          <mxGeometry x="-0.1225" relative="1" as="geometry">
            <mxPoint x="-9" y="-3" as="offset" />
          </mxGeometry>
        </mxCell>
        <mxCell id="VzAytHsf84ptwid28OPW-61" value="" style="endArrow=classic;html=1;rounded=0;entryX=0.6;entryY=0.988;entryDx=0;entryDy=0;exitX=0.324;exitY=0.025;exitDx=0;exitDy=0;exitPerimeter=0;entryPerimeter=0;" edge="1" parent="1" source="VzAytHsf84ptwid28OPW-20" target="yx_y9nf9KPECeYAKMQg5-13">
          <mxGeometry width="50" height="50" relative="1" as="geometry">
            <mxPoint x="420" y="600" as="sourcePoint" />
            <mxPoint x="281" y="438" as="targetPoint" />
          </mxGeometry>
        </mxCell>
        <mxCell id="VzAytHsf84ptwid28OPW-62" value="&lt;font style=&quot;font-size: 12px;&quot;&gt;&amp;lt;&amp;lt;Extends&amp;gt;&amp;gt;&lt;/font&gt;" style="edgeLabel;html=1;align=center;verticalAlign=middle;resizable=0;points=[];rotation=0;" vertex="1" connectable="0" parent="VzAytHsf84ptwid28OPW-61">
          <mxGeometry x="-0.1225" relative="1" as="geometry">
            <mxPoint x="-9" y="-3" as="offset" />
          </mxGeometry>
        </mxCell>
        <mxCell id="VzAytHsf84ptwid28OPW-63" value="" style="endArrow=classic;html=1;rounded=0;exitX=0.562;exitY=0.017;exitDx=0;exitDy=0;exitPerimeter=0;entryX=0.021;entryY=0.725;entryDx=0;entryDy=0;entryPerimeter=0;" edge="1" parent="1" source="VzAytHsf84ptwid28OPW-35" target="VzAytHsf84ptwid28OPW-20">
          <mxGeometry width="50" height="50" relative="1" as="geometry">
            <mxPoint x="235" y="500" as="sourcePoint" />
            <mxPoint x="232" y="582" as="targetPoint" />
          </mxGeometry>
        </mxCell>
        <mxCell id="VzAytHsf84ptwid28OPW-64" value="&lt;font style=&quot;font-size: 12px;&quot;&gt;&amp;lt;&amp;lt;Extends&amp;gt;&amp;gt;&lt;/font&gt;" style="edgeLabel;html=1;align=center;verticalAlign=middle;resizable=0;points=[];rotation=0;" vertex="1" connectable="0" parent="VzAytHsf84ptwid28OPW-63">
          <mxGeometry x="-0.1225" relative="1" as="geometry">
            <mxPoint x="-9" y="-3" as="offset" />
          </mxGeometry>
        </mxCell>
        <mxCell id="VzAytHsf84ptwid28OPW-65" value="" style="endArrow=classic;html=1;rounded=0;entryX=0.586;entryY=1.025;entryDx=0;entryDy=0;exitX=0.5;exitY=0;exitDx=0;exitDy=0;entryPerimeter=0;" edge="1" parent="1" source="VzAytHsf84ptwid28OPW-36" target="VzAytHsf84ptwid28OPW-20">
          <mxGeometry width="50" height="50" relative="1" as="geometry">
            <mxPoint x="180" y="632" as="sourcePoint" />
            <mxPoint x="184" y="568" as="targetPoint" />
          </mxGeometry>
        </mxCell>
        <mxCell id="VzAytHsf84ptwid28OPW-66" value="&lt;font style=&quot;font-size: 12px;&quot;&gt;&amp;lt;&amp;lt;Extends&amp;gt;&amp;gt;&lt;/font&gt;" style="edgeLabel;html=1;align=center;verticalAlign=middle;resizable=0;points=[];rotation=0;" vertex="1" connectable="0" parent="VzAytHsf84ptwid28OPW-65">
          <mxGeometry x="-0.1225" relative="1" as="geometry">
            <mxPoint x="-9" y="-3" as="offset" />
          </mxGeometry>
        </mxCell>
        <mxCell id="VzAytHsf84ptwid28OPW-67" value="" style="endArrow=classic;html=1;rounded=0;entryX=1;entryY=1;entryDx=0;entryDy=0;exitX=0.308;exitY=0.05;exitDx=0;exitDy=0;exitPerimeter=0;" edge="1" parent="1" source="VzAytHsf84ptwid28OPW-37" target="VzAytHsf84ptwid28OPW-20">
          <mxGeometry width="50" height="50" relative="1" as="geometry">
            <mxPoint x="325" y="670" as="sourcePoint" />
            <mxPoint x="235" y="580" as="targetPoint" />
          </mxGeometry>
        </mxCell>
        <mxCell id="VzAytHsf84ptwid28OPW-68" value="&lt;font style=&quot;font-size: 12px;&quot;&gt;&amp;lt;&amp;lt;Extends&amp;gt;&amp;gt;&lt;/font&gt;" style="edgeLabel;html=1;align=center;verticalAlign=middle;resizable=0;points=[];rotation=0;" vertex="1" connectable="0" parent="VzAytHsf84ptwid28OPW-67">
          <mxGeometry x="-0.1225" relative="1" as="geometry">
            <mxPoint x="-9" y="-3" as="offset" />
          </mxGeometry>
        </mxCell>
      </root>
    </mxGraphModel>
  </diagram>
</mxfile>
